<mxfile host="app.diagrams.net" modified="2021-03-31T08:41:53.051Z" agent="5.0 (X11; Linux x86_64) AppleWebKit/537.36 (KHTML, like Gecko) Chrome/89.0.4389.90 Safari/537.36" etag="P5KA0NR_RbglrloUyrif" version="14.5.3" type="github">
  <diagram name="Page-1" id="c7488fd3-1785-93aa-aadb-54a6760d102a">
    <mxGraphModel dx="1364" dy="774" grid="1" gridSize="10" guides="1" tooltips="1" connect="1" arrows="1" fold="1" page="1" pageScale="1" pageWidth="1100" pageHeight="850" background="#EEEEEE" math="0" shadow="0">
      <root>
        <mxCell id="0" />
        <mxCell id="1" parent="0" />
        <mxCell id="2b4e8129b02d487f-1" value="客户端响应中控的指令" style="swimlane;html=1;childLayout=stackLayout;horizontal=1;startSize=20;horizontalStack=0;shadow=0;labelBackgroundColor=none;strokeWidth=1;fontFamily=Verdana;fontSize=13;align=center;fillColor=#F5AB50;strokeColor=#909090;fontColor=#1A1A1A;rounded=1;" parent="1" vertex="1">
          <mxGeometry x="40" y="70" width="970" height="470" as="geometry" />
        </mxCell>
        <mxCell id="2b4e8129b02d487f-2" value="业务流" style="swimlane;html=1;startSize=20;horizontal=0;fontSize=12;fillColor=#F5AB50;strokeColor=#909090;fontColor=#1A1A1A;rounded=1;" parent="2b4e8129b02d487f-1" vertex="1">
          <mxGeometry y="20" width="970" height="150" as="geometry" />
        </mxCell>
        <mxCell id="I6nSz1EpFrw4cxx8nqMd-32" style="edgeStyle=orthogonalEdgeStyle;rounded=1;orthogonalLoop=1;jettySize=auto;html=1;entryX=0;entryY=0.5;entryDx=0;entryDy=0;strokeColor=#182E3E;fontColor=#1A1A1A;" edge="1" parent="2b4e8129b02d487f-2" source="I6nSz1EpFrw4cxx8nqMd-29" target="I6nSz1EpFrw4cxx8nqMd-30">
          <mxGeometry relative="1" as="geometry" />
        </mxCell>
        <mxCell id="I6nSz1EpFrw4cxx8nqMd-29" value="Process query" style="rounded=1;whiteSpace=wrap;html=1;absoluteArcSize=1;arcSize=14;strokeWidth=2;fillColor=#F5AB50;fontColor=#1A1A1A;" vertex="1" parent="2b4e8129b02d487f-2">
          <mxGeometry x="530" y="57.5" width="120" height="35" as="geometry" />
        </mxCell>
        <mxCell id="I6nSz1EpFrw4cxx8nqMd-30" value="Return result" style="rounded=1;whiteSpace=wrap;html=1;absoluteArcSize=1;arcSize=14;strokeWidth=2;fillColor=#F5AB50;fontColor=#1A1A1A;" vertex="1" parent="2b4e8129b02d487f-2">
          <mxGeometry x="700" y="57.5" width="100" height="35" as="geometry" />
        </mxCell>
        <mxCell id="I6nSz1EpFrw4cxx8nqMd-33" value="via IPC" style="text;html=1;strokeColor=none;fillColor=none;align=center;verticalAlign=middle;whiteSpace=wrap;rounded=0;fontColor=#1A1A1A;horizontal=0;" vertex="1" parent="2b4e8129b02d487f-2">
          <mxGeometry x="590" y="110" width="20" height="60" as="geometry" />
        </mxCell>
        <mxCell id="2b4e8129b02d487f-3" value="SDK" style="swimlane;html=1;startSize=20;horizontal=0;fontSize=12;fillColor=#F5AB50;strokeColor=#909090;fontColor=#1A1A1A;rounded=1;" parent="2b4e8129b02d487f-1" vertex="1">
          <mxGeometry y="170" width="970" height="150" as="geometry" />
        </mxCell>
        <mxCell id="I6nSz1EpFrw4cxx8nqMd-28" style="edgeStyle=orthogonalEdgeStyle;rounded=1;orthogonalLoop=1;jettySize=auto;html=1;entryX=0;entryY=0.5;entryDx=0;entryDy=0;strokeColor=#182E3E;fontColor=#1A1A1A;" edge="1" parent="2b4e8129b02d487f-3" source="I6nSz1EpFrw4cxx8nqMd-17" target="I6nSz1EpFrw4cxx8nqMd-27">
          <mxGeometry relative="1" as="geometry" />
        </mxCell>
        <mxCell id="I6nSz1EpFrw4cxx8nqMd-17" value="Valid header &amp;amp; parse data" style="rounded=1;whiteSpace=wrap;html=1;absoluteArcSize=1;arcSize=14;strokeWidth=2;fillColor=#F5AB50;fontColor=#1A1A1A;" vertex="1" parent="2b4e8129b02d487f-3">
          <mxGeometry x="367.5" y="57.5" width="95" height="35" as="geometry" />
        </mxCell>
        <mxCell id="I6nSz1EpFrw4cxx8nqMd-20" value="via tcp" style="text;html=1;strokeColor=none;fillColor=none;align=center;verticalAlign=middle;whiteSpace=wrap;rounded=0;fontColor=#1A1A1A;direction=south;horizontal=0;" vertex="1" parent="2b4e8129b02d487f-3">
          <mxGeometry x="420" y="105" width="20" height="70" as="geometry" />
        </mxCell>
        <mxCell id="I6nSz1EpFrw4cxx8nqMd-27" value="Process data" style="shape=parallelogram;html=1;strokeWidth=2;perimeter=parallelogramPerimeter;whiteSpace=wrap;rounded=1;arcSize=12;size=0.23;fillColor=#F5AB50;fontColor=#1A1A1A;" vertex="1" parent="2b4e8129b02d487f-3">
          <mxGeometry x="540" y="45" width="100" height="60" as="geometry" />
        </mxCell>
        <mxCell id="I6nSz1EpFrw4cxx8nqMd-35" value="Receive ret" style="shape=parallelogram;html=1;strokeWidth=2;perimeter=parallelogramPerimeter;whiteSpace=wrap;rounded=1;arcSize=12;size=0.23;fillColor=#F5AB50;fontColor=#1A1A1A;" vertex="1" parent="2b4e8129b02d487f-3">
          <mxGeometry x="700" y="45" width="100" height="60" as="geometry" />
        </mxCell>
        <mxCell id="I6nSz1EpFrw4cxx8nqMd-18" style="edgeStyle=orthogonalEdgeStyle;rounded=1;orthogonalLoop=1;jettySize=auto;html=1;entryX=0.5;entryY=1;entryDx=0;entryDy=0;strokeColor=#182E3E;fontColor=#1A1A1A;" edge="1" parent="2b4e8129b02d487f-1" source="I6nSz1EpFrw4cxx8nqMd-13" target="I6nSz1EpFrw4cxx8nqMd-17">
          <mxGeometry relative="1" as="geometry" />
        </mxCell>
        <mxCell id="I6nSz1EpFrw4cxx8nqMd-31" style="edgeStyle=orthogonalEdgeStyle;rounded=1;orthogonalLoop=1;jettySize=auto;html=1;entryX=0.5;entryY=1;entryDx=0;entryDy=0;strokeColor=#182E3E;fontColor=#1A1A1A;" edge="1" parent="2b4e8129b02d487f-1" source="I6nSz1EpFrw4cxx8nqMd-27" target="I6nSz1EpFrw4cxx8nqMd-29">
          <mxGeometry relative="1" as="geometry" />
        </mxCell>
        <mxCell id="I6nSz1EpFrw4cxx8nqMd-36" style="edgeStyle=orthogonalEdgeStyle;rounded=1;orthogonalLoop=1;jettySize=auto;html=1;entryX=0.5;entryY=0;entryDx=0;entryDy=0;strokeColor=#182E3E;fontColor=#1A1A1A;" edge="1" parent="2b4e8129b02d487f-1" source="I6nSz1EpFrw4cxx8nqMd-30" target="I6nSz1EpFrw4cxx8nqMd-35">
          <mxGeometry relative="1" as="geometry" />
        </mxCell>
        <mxCell id="I6nSz1EpFrw4cxx8nqMd-38" style="edgeStyle=orthogonalEdgeStyle;rounded=1;orthogonalLoop=1;jettySize=auto;html=1;entryX=0.5;entryY=0;entryDx=0;entryDy=0;strokeColor=#182E3E;fontColor=#1A1A1A;" edge="1" parent="2b4e8129b02d487f-1" source="I6nSz1EpFrw4cxx8nqMd-35" target="I6nSz1EpFrw4cxx8nqMd-37">
          <mxGeometry relative="1" as="geometry" />
        </mxCell>
        <mxCell id="2b4e8129b02d487f-4" value="中控" style="swimlane;html=1;startSize=20;horizontal=0;fontSize=12;fillColor=#F5AB50;strokeColor=#909090;fontColor=#1A1A1A;rounded=1;" parent="2b4e8129b02d487f-1" vertex="1">
          <mxGeometry y="320" width="970" height="150" as="geometry" />
        </mxCell>
        <mxCell id="I6nSz1EpFrw4cxx8nqMd-7" style="edgeStyle=orthogonalEdgeStyle;rounded=1;orthogonalLoop=1;jettySize=auto;html=1;entryX=0;entryY=0.5;entryDx=0;entryDy=0;strokeColor=#182E3E;fontColor=#1A1A1A;exitX=1;exitY=0.5;exitDx=0;exitDy=0;exitPerimeter=0;" edge="1" parent="2b4e8129b02d487f-4" source="I6nSz1EpFrw4cxx8nqMd-40" target="I6nSz1EpFrw4cxx8nqMd-9">
          <mxGeometry relative="1" as="geometry">
            <mxPoint x="80" y="72.5" as="sourcePoint" />
            <mxPoint x="130" y="72.5" as="targetPoint" />
          </mxGeometry>
        </mxCell>
        <mxCell id="I6nSz1EpFrw4cxx8nqMd-11" style="edgeStyle=orthogonalEdgeStyle;rounded=1;orthogonalLoop=1;jettySize=auto;html=1;strokeColor=#182E3E;fontColor=#1A1A1A;" edge="1" parent="2b4e8129b02d487f-4" source="I6nSz1EpFrw4cxx8nqMd-9" target="I6nSz1EpFrw4cxx8nqMd-10">
          <mxGeometry relative="1" as="geometry" />
        </mxCell>
        <mxCell id="I6nSz1EpFrw4cxx8nqMd-9" value="Collect user data if any" style="shape=parallelogram;html=1;strokeWidth=2;perimeter=parallelogramPerimeter;whiteSpace=wrap;rounded=1;arcSize=12;size=0.23;fillColor=#F5AB50;fontColor=#1A1A1A;" vertex="1" parent="2b4e8129b02d487f-4">
          <mxGeometry x="130" y="43" width="100" height="60" as="geometry" />
        </mxCell>
        <mxCell id="I6nSz1EpFrw4cxx8nqMd-14" style="edgeStyle=orthogonalEdgeStyle;rounded=1;orthogonalLoop=1;jettySize=auto;html=1;strokeColor=#182E3E;fontColor=#1A1A1A;" edge="1" parent="2b4e8129b02d487f-4" source="I6nSz1EpFrw4cxx8nqMd-10" target="I6nSz1EpFrw4cxx8nqMd-13">
          <mxGeometry relative="1" as="geometry" />
        </mxCell>
        <mxCell id="I6nSz1EpFrw4cxx8nqMd-10" value="Valid data" style="rounded=1;whiteSpace=wrap;html=1;absoluteArcSize=1;arcSize=14;strokeWidth=2;fillColor=#F5AB50;fontColor=#1A1A1A;" vertex="1" parent="2b4e8129b02d487f-4">
          <mxGeometry x="260" y="46.5" width="100" height="53" as="geometry" />
        </mxCell>
        <mxCell id="I6nSz1EpFrw4cxx8nqMd-15" style="edgeStyle=orthogonalEdgeStyle;rounded=1;orthogonalLoop=1;jettySize=auto;html=1;entryX=0.25;entryY=1;entryDx=0;entryDy=0;strokeColor=#182E3E;fontColor=#1A1A1A;" edge="1" parent="2b4e8129b02d487f-4" source="I6nSz1EpFrw4cxx8nqMd-13" target="I6nSz1EpFrw4cxx8nqMd-9">
          <mxGeometry relative="1" as="geometry">
            <Array as="points">
              <mxPoint x="415" y="143" />
              <mxPoint x="155" y="143" />
            </Array>
          </mxGeometry>
        </mxCell>
        <mxCell id="I6nSz1EpFrw4cxx8nqMd-13" value="" style="strokeWidth=2;html=1;shape=mxgraph.flowchart.decision;whiteSpace=wrap;rounded=1;fillColor=#F5AB50;fontColor=#1A1A1A;" vertex="1" parent="2b4e8129b02d487f-4">
          <mxGeometry x="390" y="23" width="50" height="100" as="geometry" />
        </mxCell>
        <mxCell id="I6nSz1EpFrw4cxx8nqMd-16" value="Invalid data" style="text;html=1;strokeColor=none;fillColor=none;align=center;verticalAlign=middle;whiteSpace=wrap;rounded=0;fontColor=#1A1A1A;" vertex="1" parent="2b4e8129b02d487f-4">
          <mxGeometry x="240" y="123" width="70" height="20" as="geometry" />
        </mxCell>
        <mxCell id="I6nSz1EpFrw4cxx8nqMd-42" style="edgeStyle=orthogonalEdgeStyle;rounded=1;orthogonalLoop=1;jettySize=auto;html=1;entryX=0;entryY=0.5;entryDx=0;entryDy=0;entryPerimeter=0;strokeColor=#182E3E;fontColor=#1A1A1A;" edge="1" parent="2b4e8129b02d487f-4" source="I6nSz1EpFrw4cxx8nqMd-37" target="I6nSz1EpFrw4cxx8nqMd-41">
          <mxGeometry relative="1" as="geometry" />
        </mxCell>
        <mxCell id="I6nSz1EpFrw4cxx8nqMd-37" value="According ret to react" style="rounded=1;whiteSpace=wrap;html=1;absoluteArcSize=1;arcSize=14;strokeWidth=2;fillColor=#F5AB50;fontColor=#1A1A1A;" vertex="1" parent="2b4e8129b02d487f-4">
          <mxGeometry x="700" y="44.5" width="100" height="55" as="geometry" />
        </mxCell>
        <mxCell id="I6nSz1EpFrw4cxx8nqMd-40" value="Start" style="strokeWidth=2;html=1;shape=mxgraph.flowchart.start_1;whiteSpace=wrap;rounded=1;fillColor=#F5AB50;fontColor=#1A1A1A;" vertex="1" parent="2b4e8129b02d487f-4">
          <mxGeometry x="30" y="54.5" width="50" height="37" as="geometry" />
        </mxCell>
        <mxCell id="I6nSz1EpFrw4cxx8nqMd-41" value="End" style="strokeWidth=2;html=1;shape=mxgraph.flowchart.terminator;whiteSpace=wrap;rounded=1;fillColor=#F5AB50;fontColor=#1A1A1A;" vertex="1" parent="2b4e8129b02d487f-4">
          <mxGeometry x="860" y="42" width="100" height="60" as="geometry" />
        </mxCell>
      </root>
    </mxGraphModel>
  </diagram>
</mxfile>
